<svg width="28" height="28" viewBox="0 0 28 28" fill="none" xmlns="http://www.w3.org/2000/svg">
<path d="M18.2291 4.66659C18.2291 5.28542 17.9832 5.87892 17.5457 6.3165C17.1081 6.75409 16.5146 6.99992 15.8957 6.99992C15.2769 6.99992 14.6834 6.75409 14.2458 6.3165C13.8082 5.87892 13.5624 5.28542 13.5624 4.66659C13.5624 4.04775 13.8082 3.45425 14.2458 3.01667C14.6834 2.57908 15.2769 2.33325 15.8957 2.33325C16.5146 2.33325 17.1081 2.57908 17.5457 3.01667C17.9832 3.45425 18.2291 4.04775 18.2291 4.66659ZM14.9875 16.5648L18.0167 19.5538C18.1329 19.6685 18.2237 19.8062 18.2833 19.9581L19.8986 24.0735C20.0117 24.3616 20.0057 24.6828 19.882 24.9664C19.7582 25.2501 19.5269 25.473 19.2388 25.5861C18.9508 25.6992 18.6296 25.6932 18.3459 25.5695C18.0622 25.4457 17.8393 25.2144 17.7262 24.9263L16.2014 21.0408L10.9934 15.9016C10.8676 15.7775 10.7716 15.6264 10.7126 15.4598C10.6537 15.2931 10.6334 15.1153 10.6533 14.9397L11.0704 11.253C10.0647 12.2528 9.28891 13.6581 8.69449 15.5207C8.65005 15.6691 8.57647 15.8073 8.47805 15.927C8.37962 16.0467 8.25833 16.1456 8.12126 16.218C7.98418 16.2903 7.83407 16.3346 7.67969 16.3482C7.5253 16.3619 7.36975 16.3447 7.2221 16.2976C7.07445 16.2504 6.93767 16.1744 6.81975 16.0738C6.70183 15.9732 6.60512 15.8502 6.53529 15.7118C6.46546 15.5734 6.4239 15.4225 6.41303 15.2679C6.40216 15.1133 6.42221 14.9581 6.47199 14.8113C7.56283 11.393 9.37408 8.8345 12.4132 7.66142L12.4267 7.65617C13.2007 7.36859 14.0057 7.39192 14.7232 7.76234C15.4122 8.11875 15.9027 8.73417 16.2242 9.42367L16.6022 10.2403C16.8868 10.8575 17.126 11.3778 17.3564 11.834C17.679 12.4757 17.9386 12.9015 18.1952 13.2002C18.4332 13.4767 18.6695 13.647 18.9711 13.7648C19.2954 13.8914 19.7498 13.9789 20.4516 13.9999C20.6057 14.003 20.7578 14.0366 20.8988 14.0988C21.0399 14.161 21.1673 14.2506 21.2736 14.3623C21.3798 14.474 21.4629 14.6057 21.518 14.7497C21.573 14.8937 21.599 15.0472 21.5944 15.2014C21.5897 15.3555 21.5546 15.5071 21.491 15.6476C21.4274 15.7881 21.3366 15.9145 21.2238 16.0197C21.111 16.1248 20.9785 16.2066 20.834 16.2602C20.6894 16.3138 20.5356 16.3382 20.3816 16.3321C19.5387 16.307 18.7902 16.1991 18.1223 15.9383C17.4322 15.6688 16.888 15.2588 16.4248 14.7192C16.1332 14.3797 15.8765 13.9918 15.6373 13.57L14.9875 16.5648Z" fill="#F44237"/>
<path d="M10.6533 17.6282L12.587 19.4832L11.6969 22.4856C11.628 22.7179 11.4886 22.923 11.2979 23.0724L8.30303 25.4192C8.18237 25.5137 8.04429 25.5835 7.89666 25.6246C7.74904 25.6657 7.59475 25.6774 7.44262 25.6589C7.29049 25.6404 7.1435 25.5921 7.01003 25.5168C6.87656 25.4415 6.75923 25.3406 6.66473 25.22C6.57024 25.0993 6.50044 24.9612 6.45931 24.8136C6.41819 24.666 6.40654 24.5117 6.42504 24.3596C6.44353 24.2074 6.49182 24.0604 6.56712 23.927C6.64243 23.7935 6.74329 23.6762 6.86394 23.5817L9.56594 21.4653L10.3797 18.7178L10.6533 17.6282Z" fill="#F44237"/>
</svg>
