<svg width="28" height="28" viewBox="0 0 28 28" fill="none" xmlns="http://www.w3.org/2000/svg">
<path d="M2.3415 3.43165C2.61625 2.3834 3.57175 1.7499 4.57625 1.7499C5.19575 1.7499 5.75925 1.98265 6.188 2.3624C6.66071 1.96588 7.258 1.74854 7.875 1.74854C8.492 1.74854 9.08929 1.96588 9.562 2.3624C10.0056 1.96687 10.5794 1.74879 11.1737 1.7499C12.1783 1.7499 13.1337 2.3834 13.4085 3.43165C13.671 4.43265 14 6.04615 14 7.8749C14 8.89613 13.7446 9.90113 13.2571 10.7985C12.7696 11.6958 12.0655 12.4571 11.2088 13.0129C10.7345 13.3227 10.5 13.7217 10.5 14.0629V14.7559C10.5 14.7956 10.5023 14.8341 10.507 14.8714C10.5665 15.3054 10.7817 16.9172 10.983 18.5884C11.1807 20.2282 11.375 22.0167 11.375 22.7499C11.375 23.6782 11.0063 24.5684 10.3499 25.2248C9.6935 25.8812 8.80326 26.2499 7.875 26.2499C6.94674 26.2499 6.0565 25.8812 5.40013 25.2248C4.74375 24.5684 4.375 23.6782 4.375 22.7499C4.375 22.0149 4.56925 20.2299 4.767 18.5884C4.96825 16.9172 5.1835 15.3054 5.243 14.8714L5.25 14.7559V14.0629C5.25 13.7217 5.0155 13.3227 4.54125 13.0129C3.68455 12.4571 2.98042 11.6958 2.49292 10.7985C2.00543 9.90113 1.75004 8.89613 1.75 7.8749C1.75 6.04615 2.079 4.43265 2.3415 3.43165ZM10.5 8.7499C10.5 8.98197 10.4078 9.20453 10.2437 9.36862C10.0796 9.53271 9.85706 9.6249 9.625 9.6249C9.39294 9.6249 9.17038 9.53271 9.00628 9.36862C8.84219 9.20453 8.75 8.98197 8.75 8.7499V4.3749C8.75 4.14284 8.65781 3.92028 8.49372 3.75618C8.32962 3.59209 8.10706 3.4999 7.875 3.4999C7.64294 3.4999 7.42038 3.59209 7.25628 3.75618C7.09219 3.92028 7 4.14284 7 4.3749V8.7499C7 8.98197 6.90781 9.20453 6.74372 9.36862C6.57962 9.53271 6.35706 9.6249 6.125 9.6249C5.89294 9.6249 5.67038 9.53271 5.50628 9.36862C5.34219 9.20453 5.25 8.98197 5.25 8.7499V4.17365C5.25 3.99496 5.17902 3.82359 5.05266 3.69724C4.92631 3.57089 4.75494 3.4999 4.57625 3.4999C4.28575 3.4999 4.08625 3.67315 4.03375 3.87615C3.68888 5.18142 3.50956 6.52488 3.5 7.8749C3.49992 8.60472 3.68241 9.32296 4.03085 9.96422C4.3793 10.6055 4.88262 11.1494 5.495 11.5464C6.26325 12.0452 7 12.9219 7 14.0629V14.7559C7 14.8726 6.99242 14.9892 6.97725 15.1059C6.91775 15.5364 6.70425 17.1377 6.50475 18.7984C6.30175 20.4872 6.125 22.1479 6.125 22.7499C6.125 23.214 6.30937 23.6591 6.63756 23.9873C6.96575 24.3155 7.41087 24.4999 7.875 24.4999C8.33913 24.4999 8.78425 24.3155 9.11244 23.9873C9.44063 23.6591 9.625 23.214 9.625 22.7499C9.625 22.1479 9.45 20.4872 9.24525 18.7967C9.04575 17.1377 8.83225 15.5364 8.77275 15.1042C8.75944 14.9891 8.75185 14.8735 8.75 14.7577V14.0647C8.75 12.9237 9.48675 12.0469 10.255 11.5482C10.8676 11.151 11.3711 10.6068 11.7196 9.9652C12.068 9.32361 12.2504 8.60501 12.25 7.8749C12.25 6.2439 11.956 4.7879 11.7163 3.87615C11.6638 3.6749 11.4625 3.4999 11.1737 3.4999C10.9951 3.4999 10.8237 3.57089 10.6973 3.69724C10.571 3.82359 10.5 3.99496 10.5 4.17365V8.7499ZM15.75 9.6249C15.75 7.53632 16.5797 5.53328 18.0565 4.05644C19.5334 2.57959 21.5364 1.7499 23.625 1.7499C23.8571 1.7499 24.0796 1.84209 24.2437 2.00618C24.4078 2.17028 24.5 2.39284 24.5 2.6249V13.0777L24.5333 13.3874C24.6725 14.6935 24.8061 16.0002 24.934 17.3074C25.1493 19.5054 25.375 21.9694 25.375 22.7499C25.375 23.6782 25.0063 24.5684 24.3499 25.2248C23.6935 25.8812 22.8033 26.2499 21.875 26.2499C20.9467 26.2499 20.0565 25.8812 19.4001 25.2248C18.7437 24.5684 18.375 23.6782 18.375 22.7499C18.375 21.9694 18.6007 19.5054 18.816 17.3074C18.9263 16.1927 19.0365 15.1252 19.1187 14.3342L19.1537 13.9999H17.5C17.0359 13.9999 16.5908 13.8155 16.2626 13.4873C15.9344 13.1592 15.75 12.714 15.75 12.2499V9.6249ZM20.9947 13.2177L20.958 13.5712C20.8212 14.8733 20.6882 16.1759 20.559 17.4789C20.3368 19.7312 20.125 22.0814 20.125 22.7499C20.125 23.214 20.3094 23.6591 20.6376 23.9873C20.9658 24.3155 21.4109 24.4999 21.875 24.4999C22.3391 24.4999 22.7842 24.3155 23.1124 23.9873C23.4406 23.6591 23.625 23.214 23.625 22.7499C23.625 22.0797 23.4132 19.7312 23.191 17.4789C23.0626 16.1758 22.9296 14.8733 22.792 13.5712L22.7553 13.2194L22.75 13.1249V3.56115C21.292 3.7716 19.9587 4.50047 18.9944 5.61417C18.0302 6.72787 17.4996 8.15178 17.5 9.6249V12.2499H20.125C20.2477 12.2499 20.369 12.2758 20.4811 12.3258C20.5932 12.3758 20.6935 12.4488 20.7755 12.54C20.8575 12.6313 20.9194 12.7388 20.9572 12.8555C20.995 12.9723 21.0078 13.0956 20.9947 13.2177Z" fill="#FA9B31"/>
</svg>
